<svg xmlns="http://www.w3.org/2000/svg" width="20" height="14" viewBox="0 0 20 14">
  <g id="USA" transform="translate(-1.998 -10)">
    <rect id="Прямоугольник_171" data-name="Прямоугольник 171" width="19.999" height="14" transform="translate(1.998 10)" fill="#eceff1"/>
    <g id="Сгруппировать_2996" data-name="Сгруппировать 2996" transform="translate(1.999 10)">
      <rect id="Прямоугольник_172" data-name="Прямоугольник 172" width="19.999" height="1.556" transform="translate(0)" fill="#f44336"/>
      <rect id="Прямоугольник_173" data-name="Прямоугольник 173" width="19.999" height="1.556" transform="translate(0 3.111)" fill="#f44336"/>
      <rect id="Прямоугольник_174" data-name="Прямоугольник 174" width="19.999" height="1.556" transform="translate(0 6.222)" fill="#f44336"/>
      <rect id="Прямоугольник_175" data-name="Прямоугольник 175" width="19.999" height="1.556" transform="translate(0 9.333)" fill="#f44336"/>
      <rect id="Прямоугольник_176" data-name="Прямоугольник 176" width="19.999" height="1.556" transform="translate(0 12.444)" fill="#f44336"/>
    </g>
    <rect id="Прямоугольник_177" data-name="Прямоугольник 177" width="9.545" height="7.778" transform="translate(1.999 10)" fill="#3f51b5"/>
    <g id="Сгруппировать_2997" data-name="Сгруппировать 2997" transform="translate(2.34 11.037)">
      <path id="Контур_2859" data-name="Контур 2859" d="M3.432,12l.21.512.471.082-.341.4.081.562-.422-.265-.422.265.081-.562-.341-.4.471-.082Z" transform="translate(-2.75 -12)" fill="#fff"/>
      <path id="Контур_2860" data-name="Контур 2860" d="M7.432,12l.21.512.471.082-.341.4.081.562-.422-.265-.422.265.081-.562-.341-.4.471-.082Z" transform="translate(-4.932 -12)" fill="#fff"/>
      <path id="Контур_2861" data-name="Контур 2861" d="M11.432,12l.21.512.471.082-.341.4.081.562-.422-.265-.422.265.081-.562-.341-.4.471-.082Z" transform="translate(-7.114 -12)" fill="#fff"/>
      <path id="Контур_2862" data-name="Контур 2862" d="M15.432,12l.21.512.471.082-.341.4.081.562-.422-.265-.422.265.081-.562-.341-.4.471-.082Z" transform="translate(-9.296 -12)" fill="#fff"/>
      <path id="Контур_2863" data-name="Контур 2863" d="M19.182,12l.21.512.471.082-.341.4.081.562-.422-.265-.422.265.081-.562-.341-.4.471-.082Z" transform="translate(-11.341 -12)" fill="#fff"/>
      <path id="Контур_2864" data-name="Контур 2864" d="M3.432,20l.21.512.471.082-.341.4.081.562-.422-.265-.422.265.081-.562-.341-.4.471-.082Z" transform="translate(-2.75 -15.852)" fill="#fff"/>
      <path id="Контур_2865" data-name="Контур 2865" d="M7.432,20l.21.512.471.082-.341.4.081.562-.422-.265-.422.265.081-.562-.341-.4.471-.082Z" transform="translate(-4.932 -15.852)" fill="#fff"/>
      <path id="Контур_2866" data-name="Контур 2866" d="M11.432,20l.21.512.471.082-.341.4.081.562-.422-.265-.422.265.081-.562-.341-.4.471-.082Z" transform="translate(-7.114 -15.852)" fill="#fff"/>
      <path id="Контур_2867" data-name="Контур 2867" d="M15.432,20l.21.512.471.082-.341.4.081.562-.422-.265-.422.265.081-.562-.341-.4.471-.082Z" transform="translate(-9.296 -15.852)" fill="#fff"/>
      <path id="Контур_2868" data-name="Контур 2868" d="M19.182,20l.21.512.471.082-.341.4.081.562-.422-.265-.422.265.081-.562-.341-.4.471-.082Z" transform="translate(-11.341 -15.852)" fill="#fff"/>
      <path id="Контур_2869" data-name="Контур 2869" d="M4.432,16l.21.512.471.082-.341.4.081.562-.422-.265-.422.265.081-.562-.341-.4.471-.082Z" transform="translate(-3.295 -13.926)" fill="#fff"/>
      <path id="Контур_2870" data-name="Контур 2870" d="M8.432,16l.21.512.471.082-.341.4.081.562-.422-.265-.422.265.081-.562-.341-.4.471-.082Z" transform="translate(-5.477 -13.926)" fill="#fff"/>
      <path id="Контур_2871" data-name="Контур 2871" d="M12.432,16l.21.512.471.082-.341.4.081.562-.422-.265-.422.265.081-.562-.341-.4.471-.082Z" transform="translate(-7.659 -13.926)" fill="#fff"/>
      <path id="Контур_2872" data-name="Контур 2872" d="M16.432,16l.21.512.471.082-.341.4.081.562-.422-.265-.422.265.081-.562-.341-.4.471-.082Z" transform="translate(-9.841 -13.926)" fill="#fff"/>
      <path id="Контур_2873" data-name="Контур 2873" d="M20.182,16l.21.512.471.082-.341.4.081.562-.422-.265-.422.265.081-.562-.341-.4.471-.082Z" transform="translate(-11.887 -13.926)" fill="#fff"/>
    </g>
  </g>
</svg>
