<svg xmlns="http://www.w3.org/2000/svg" width="20" height="20" viewBox="0 0 20 20">
  <g id="Dribbble-Light-Preview" transform="translate(-380 -2159)">
    <g id="icons" transform="translate(56 160)">
      <path id="profile-_1336_" data-name="profile-[#1336]" d="M334,2011a7.6,7.6,0,0,1,7.784,6H326.216a7.6,7.6,0,0,1,7.784-6m-4-6a4,4,0,1,1,4,4,4,4,0,0,1-4-4m7.758,4.673a6,6,0,1,0-7.516,0A9.62,9.62,0,0,0,324,2019h20a9.62,9.62,0,0,0-6.242-9.327" fill="#909090" fill-rule="evenodd"/>
    </g>
  </g>
</svg>
